<svg width="354" height="445" viewBox="0 0 354 445" fill="none" xmlns="http://www.w3.org/2000/svg">
<path d="M167.637 220.287L57.885 272.196C54.6263 273.767 52.5312 277.141 52.5312 280.807V381.597C52.5312 385.322 54.6263 388.639 57.885 390.21L167.694 442.175C170.488 443.514 173.514 444.154 176.539 444.154V218.25C173.514 218.309 170.488 219.007 167.637 220.287Z" fill="#00FF86"/>
<path d="M171.669 1.47634L120.168 26.9648V95.4574L59.8802 125.019V55.9446L5.87747 82.7715C2.26952 84.5754 0 88.2416 0 92.1986V224.179C0 231.918 8.20515 237.04 15.1301 233.606L167.187 159.003C170.155 157.549 173.355 156.851 176.557 156.851V0.3125C174.869 0.3125 173.181 0.719828 171.669 1.47634Z" fill="#00FF86"/>
<path d="M295.275 272.203L185.465 220.294C182.614 218.897 179.588 218.257 176.562 218.316V444.219C179.588 444.219 182.73 443.579 185.524 442.241L295.275 390.275C298.534 388.703 300.628 385.329 300.628 381.662V280.873C300.628 277.148 298.534 273.774 295.275 272.203Z" fill="#01D370"/>
<path d="M347.298 82.7758L293.297 55.949V125.082L232.95 95.52V27.0272L181.451 1.53882C179.937 0.782328 178.191 0.375 176.562 0.375V156.914C179.763 156.914 182.962 157.67 185.93 159.066L337.988 233.669C344.97 237.102 353.118 231.982 353.118 224.242V92.2611C353.177 88.2458 350.906 84.5797 347.298 82.7758Z" fill="#01D370"/>
</svg>
