<svg width="800" height="1000" viewBox="0 0 800 1000" fill="none" xmlns="http://www.w3.org/2000/svg">
<path d="M628.951 790.631C493.563 749.684 448.574 590.123 448.574 590.123C448.574 590.123 460.682 587.632 465.453 586.845C589.643 566.387 698.868 453.511 688.352 310.343C683.061 238.185 651.443 182.419 588.309 146.291C544.846 121.441 500.672 114.458 455.001 114.458C306.791 114.458 173.286 250.086 173.286 250.086C173.286 250.086 131.251 199.729 112.49 184.452C97.9798 172.65 80.4845 167.535 61.4309 171.01C35.1713 175.83 15.9554 195.336 8.39236 204.221C6.34742 206.614 6.67208 210.188 9.07407 212.188C20.5971 221.793 52.6669 245.758 67.4683 260.676C85.6456 279.034 117.747 315.95 117.747 315.95C117.747 315.95 71.4933 380.96 52.3423 416.826C18.6495 479.935 -2.70868 546.946 0.277571 619.957C2.29005 668.97 40.235 794.959 160.887 794.959C322.859 794.959 348.957 618.875 322.696 525.473C299.812 444.07 269.268 374.142 223.76 302.606C253.006 267.855 310.621 221.334 362.169 203.237C400.568 189.73 439.811 181.993 480.612 187.993C569.518 201.041 602.887 275.625 604.51 333.882C607.755 451.381 502.133 545.537 386.318 528.85C359.442 524.981 346.617 537.21 349.019 564.453C349.149 566.125 349.444 567.798 349.769 569.47C355.644 599.205 366.681 627.104 380.119 653.955C418.095 729.981 468.992 795.188 540.305 842.004C585.358 871.576 634.794 891.803 689.391 883.772C764.989 872.625 784.529 808.466 791.735 774.699C793.195 767.847 785.925 762.47 779.887 765.945C752.752 781.648 692.016 809.679 629.078 790.631H628.951ZM248.137 575.993C251.253 603.926 249.11 631.661 236.549 657.397C219.768 691.852 192.956 711.983 154.038 711.064C115.898 710.146 90.1899 689.164 74.9989 654.905C60.6843 622.646 61.7231 588.878 68.507 555.143C79.3484 501.376 103.628 453.446 132.517 407.647C140.794 394.533 149.623 381.78 159.198 367.355C201.947 432.465 239.405 498.033 248.104 575.993H248.137Z" fill="white"/>
<path d="M108.105 546.323C87.1355 575.074 85.967 627.038 107.552 655.789C123.328 676.837 158.384 686.41 176.334 679.329C150.464 670.706 133.78 651.396 122.289 628.841C110.799 606.285 101.32 578.714 108.105 546.291V546.323Z" fill="white"/>
</svg>
