<svg width="395" height="428" viewBox="0 0 395 428" fill="none" xmlns="http://www.w3.org/2000/svg">
<path d="M21.0249 243.526C9.42489 241.976 -1.65019 231.376 0.674814 219.476L3.24993 208.326C3.74993 206.001 4.7999 201.851 6.0749 200.051C9.4249 194.626 14.5749 192.026 22.0749 191.251L81.0749 182.451C182.875 174.951 172.05 125.251 187 86.9506L210.45 16.0006C212.5 6.40059 218.45 0.975586 228.725 0.975586H246.525C256.825 0.975586 262.25 6.40058 260.175 15.9756L256.05 88.2256C250.9 145.151 256.55 170.776 315.05 178.801L379.225 191.751C379.225 191.751 397.275 194.601 394.7 210.626L390.825 228.751C390.196 232.459 388.269 235.823 385.388 238.241C382.508 240.659 378.861 241.974 375.1 241.951L312.225 249.976C252.975 255.426 236.975 249.226 217.4 321.951L192.15 412.801C190.85 422.376 184.15 427.801 173.85 427.801H148.85C138.55 427.801 133.65 422.376 135.2 412.801L142.4 324.276C145.5 267.576 125.4 259.301 76.1749 252.576L20.7748 243.251L21.0249 243.501V243.526Z" fill="#F6AF16"/>
</svg>
