<svg width="690" height="690" viewBox="0 0 690 690" fill="none" xmlns="http://www.w3.org/2000/svg">
<path d="M336.48 0H352.76C361.92 0.32 371.066 0.813333 380.186 1.68C376.533 15.6667 372.706 29.6267 369.093 43.6267C317.506 39.5067 265.013 48.84 218 70.4667C210.906 58.0667 203.626 45.7733 196.413 33.44C240.106 12.6933 288.106 1.09333 336.48 0Z" fill="#EEAF0E"/>
<path d="M440.187 58.1331C443.973 44.3598 447.68 30.5731 451.333 16.7598C489.813 29.5598 526.307 48.6264 558.12 73.8664C578.32 89.8131 596.613 108.133 612.88 128.08C600.307 135.266 587.84 142.6 575.227 149.693C539.613 107.653 492.507 75.5064 440.187 58.1331Z" fill="#EEAF0E"/>
<path d="M25.0664 215C48.2397 158.666 86.1198 108.4 134.533 71.3198C141.8 83.7332 148.893 96.2532 156.133 108.693C117.213 139.653 86.3464 180.453 66.7331 226.12C52.8531 222.413 38.9731 218.653 25.0664 215Z" fill="#EEAF0E"/>
<path d="M319.427 79.6802C366.254 75.0802 414.28 83.0935 456.947 102.987C497.494 121.76 533.134 150.973 559.6 186.973C586.28 223.107 603.574 266.12 609.16 310.707C615.88 362.92 606.747 417.094 582.88 464.054C559.187 511.134 521.16 550.84 475.174 576.587C431.894 601.014 381.614 612.707 332 610.134C289.947 608.12 248.44 595.84 212.067 574.64C170.707 550.68 136.027 515.36 112.8 473.587C88.8135 430.72 77.2402 381.08 79.6268 332.04C81.6268 286.747 95.5735 242.08 119.667 203.694C147.387 159.267 188.467 123.294 236.24 101.827C262.507 89.9468 290.734 82.4535 319.427 79.6802ZM294.547 124.2C252.92 132.733 214.147 154.2 184.774 184.893C152.72 215.494 130.56 256.307 122.827 299.974C118.907 320.187 119.307 340.854 119.64 361.334C121.373 406 137.8 449.947 165.907 484.72C173.533 494.36 182.333 502.96 191.08 511.574C220.2 539.694 257.64 559.04 297.427 566.534C319.2 570.787 341.52 570.747 363.6 569.907C358.774 544.88 355.814 519.334 347.667 495.067C343.734 484.16 338.054 473.96 331.747 464.24C330.36 462.147 328.934 459.96 326.76 458.614C318.734 454.054 310.387 449.934 301.36 447.8C288.507 443.094 273.894 439.454 265.227 427.96C256.427 418.774 255.254 405.387 255 393.32C254.707 376.254 261.32 360.267 265.88 344.134C252.214 343.187 238.4 342.427 225.12 338.867C213.8 336.16 203.307 330.907 193 325.614C182.2 320 173.72 311.134 165.947 301.947C158.307 292.774 155.44 280.827 152.52 269.52C152.213 265.827 149.76 259.4 154.72 257.88C167.894 255.88 181.28 256.147 194.573 256.267C213.147 256.374 231.4 260.24 249.427 264.267C270.854 269.934 291.32 280.36 307.4 295.76C312.174 292.16 317.467 289.32 323.027 287.107C322.72 276.694 324.934 266.467 326.2 256.187C330.067 228.587 343.64 203.467 359.934 181.267C362.36 178.053 366.387 175.213 370.6 176.44C375.454 178.014 379.387 181.56 382.627 185.373C390.547 195.893 398.254 207.32 400.547 220.547C405.28 241.36 403.227 262.934 399.627 283.76C406 285.56 412.76 286.974 418.16 291.067C422.947 294.614 425.214 300.347 427.84 305.48C431.4 305.254 434.734 306.88 437.08 309.494C443.574 316.494 446.227 326.307 446.347 335.68C449.12 337.64 451.96 339.56 455.2 340.654C470.6 345.747 486.614 348.747 502 353.854C508.96 357.414 516.627 353.467 524 354.374C530.174 354.734 538.574 356.254 540.454 363.24C541.814 369.894 542.08 377.494 537.96 383.294C535.027 387.467 536.067 393.014 533.52 397.387C527.534 411.254 513.96 419.08 502.747 428.24C499.734 431.134 494.374 431.24 492.827 435.56C488.374 445.187 480.36 452.414 472.667 459.427C464.84 465.32 455.467 469.2 445.827 470.814C435.254 472.147 424.547 471.84 413.947 471.054C419.28 498.654 428.107 525.454 437 552.08C469.84 538.027 497.614 514.28 520.52 487.214C558.014 441.827 575.907 381.08 570.134 322.587C566.56 285.027 553.24 248.453 531.907 217.347C504.467 177.147 463.88 145.907 417.68 130.427C378.24 117 335.147 115.053 294.547 124.2Z" fill="#EEAF0E"/>
<path d="M615.24 210.667C627.654 203.693 639.854 196.347 652.254 189.36C675.96 236.813 689.214 289.64 689.134 342.773C689.214 359.213 688.027 375.64 685.88 391.947C671.96 388.333 658.08 384.56 644.2 380.827C651.6 322.853 641.24 262.973 615.24 210.667Z" fill="#EEAF0E"/>
<path d="M0 335.52C0.733333 318.573 2.24 301.653 5.06667 284.92C18.7867 288.507 32.44 292.293 46.1067 296.04C44.0267 315.947 41.9733 335.96 42.8133 356.013C43.7067 385.573 49.5467 414.853 59.0933 442.8C60.6267 446.013 58.3333 449.107 55.4 450.32C44.36 456.08 34.1067 463.227 22.9333 468.707C9.05333 432.52 1.29333 394.067 0 355.333L0 335.52Z" fill="#EEAF0E"/>
<path d="M627.227 452.707C629.213 451.6 631.4 452.893 633.387 453.32C644.827 456.893 656.653 459.133 668.04 462.853C654.56 501.12 633.867 536.853 607.587 567.76C587.893 590.92 564.986 611.28 540.066 628.667C532.906 616.36 525.787 604.027 518.84 591.6C534.28 579.827 549.427 567.533 562.8 553.387C589.293 525.907 610.187 493.147 624.333 457.72C625.16 455.987 625.627 453.907 627.227 452.707Z" fill="#EEAF0E"/>
<path d="M56.7998 533.693C68.9065 526.253 81.2798 519.267 93.5331 512.08C123.826 557.333 166.36 594.24 215.613 617.533C211.866 631.507 208.16 645.507 204.493 659.507C173.92 645.587 145.12 627.6 119.733 605.573C95.5198 584.707 74.5065 560.267 56.7998 533.693Z" fill="#EEAF0E"/>
<path d="M284.266 640.627C340.986 652.107 400.826 646.867 454.733 625.84C461.906 638.293 469.08 650.76 476.346 663.173C437.586 679.027 396.039 688.147 354.146 689.333H335.506C314.573 688.533 293.693 686.186 273.173 681.986C276.826 668.186 280.68 654.44 284.266 640.627Z" fill="#EEAF0E"/>
</svg>
