<?xml version="1.0" encoding="UTF-8" standalone="no"?>
<svg
   width="513"
   height="600"
   viewBox="0 0 513 600"
   fill="none"
   version="1.1"
   id="svg3"
   sodipodi:docname="shuffle.svg"
   inkscape:version="1.4.2 (ebf0e940, 2025-05-08)"
   xmlns:inkscape="http://www.inkscape.org/namespaces/inkscape"
   xmlns:sodipodi="http://sodipodi.sourceforge.net/DTD/sodipodi-0.dtd"
   xmlns="http://www.w3.org/2000/svg"
   xmlns:svg="http://www.w3.org/2000/svg">
  <defs
     id="defs3" />
  <sodipodi:namedview
     id="namedview3"
     pagecolor="#ffffff"
     bordercolor="#000000"
     borderopacity="0.25"
     inkscape:showpageshadow="2"
     inkscape:pageopacity="0.0"
     inkscape:pagecheckerboard="0"
     inkscape:deskcolor="#d1d1d1"
     inkscape:zoom="0.41245628"
     inkscape:cx="187.8987"
     inkscape:cy="226.69069"
     inkscape:window-width="896"
     inkscape:window-height="590"
     inkscape:window-x="0"
     inkscape:window-y="38"
     inkscape:window-maximized="0"
     inkscape:current-layer="svg3" />
  <path
     d="M386.7 0H125.294C91.8325 0 60.3345 13.2959 36.6893 37.3172C13.0441 61.3827 0 93.3373 0 127.331V166.332C0 218.274 32.1523 263.79 86.0303 288.123L107.538 297.075V168.237C107.451 167.573 107.407 166.952 107.407 166.288V127.286C107.407 120.683 110.723 116.384 112.686 114.389C114.649 112.395 118.881 109.027 125.337 109.027H386.743C393.243 109.027 397.475 112.351 399.438 114.389C401.403 116.384 404.673 120.683 404.673 127.242V212.823H512.038V127.286C512.038 93.293 498.993 61.2943 475.348 37.2728C451.615 13.2516 420.16 0 386.7 0Z"
     fill="#886CFF"
     id="path1"
     style="fill:#ffffff;fill-opacity:1" />
  <path
     d="M425.57 311.656L404.5 302.881V432.606C404.588 432.916 404.588 433.271 404.588 433.581V472.581C404.588 479.186 401.315 483.528 399.307 485.523C397.345 487.518 393.112 490.886 386.655 490.886H125.294C115.434 490.886 107.407 482.686 107.407 472.716V387.133H0V472.716C0 542.918 56.1903 600.001 125.294 600.001H386.7C420.16 599.956 451.657 586.706 475.305 562.683C498.95 538.618 511.993 506.618 511.993 472.626V433.626C511.993 381.196 479.71 335.591 425.57 311.701V311.656Z"
     fill="#886CFF"
     id="path2"
     style="fill:#ffffff;fill-opacity:1" />
  <path
     d="M209.834 346.887C247.352 385.002 255.989 433.265 255.989 433.265C255.989 433.265 261.616 402.197 283.211 370.242C288.534 362.355 294.774 354.42 302.189 346.887C339.706 308.772 387.216 299.952 387.216 299.952C387.216 299.952 351.356 293.305 317.284 266.535C312.179 262.502 307.076 258.07 302.146 253.062C264.626 214.947 255.946 166.638 255.946 166.638C255.946 166.638 250.406 197.706 228.811 229.749C223.488 237.638 217.206 245.571 209.79 253.105C172.228 291.22 124.719 299.995 124.719 299.995C124.719 299.995 160.623 306.645 194.695 333.412C199.799 337.49 204.904 341.922 209.834 346.93V346.887Z"
     fill="#886CFF"
     id="path3"
     style="fill:#ffffff;fill-opacity:1" />
</svg>
