<svg width="400" height="200" viewBox="0 0 400 200" fill="none" xmlns="http://www.w3.org/2000/svg">
<path d="M31.4699 58.4999C31.3699 32.6899 47.8899 18.3699 78.2199 18.2699C100.04 18.1899 103.94 32.4699 103.94 37.6599C103.94 47.5999 89.8799 58.1399 89.8799 58.1399C89.8799 58.1399 90.6599 64.3299 102.73 64.2799C114.8 64.2299 126.56 56.2599 126.49 36.3199C126.43 13.4099 102.43 2.93987 78.7099 3.02987C58.8699 3.08987 6.23989 5.87987 6.41989 58.1299C6.59989 104.54 94.1799 108.63 94.2499 138.34C94.3699 170.61 58.1699 179.3 45.9199 179.3C33.6699 179.3 28.6899 170.63 28.6699 165.87C28.5799 139.74 54.5899 132.46 54.5899 132.46C54.5899 130.51 53.0699 121.82 42.9999 121.86C17.0499 121.91 6.71989 144.22 6.78989 166C6.85989 184.53 19.9499 196.09 39.7299 196.01C77.5499 195.87 120.19 177.42 120.03 136.45C119.89 98.1299 31.5699 88.1199 31.4599 58.4899L31.4699 58.4999Z" fill="white"/>
<path d="M391.96 161.17C391.66 160.44 390.81 160.61 389.69 161.54C385.4 165.08 375.59 175.1 352.63 175.19C310.78 175.35 303.51 106.36 303.51 106.36C303.51 106.36 335.41 82.5501 340.39 72.9401C345.37 63.3301 329.52 61.2401 329.52 61.2401C329.52 61.2401 307.21 88.3901 291.39 96.3401C293.11 84.5301 304.81 57.6201 305.48 42.1401C306.15 26.6601 286.85 30.4401 283.76 31.9201C283.76 38.6801 266.7 100.02 260.49 133.74C256.83 139.59 251.61 146.28 246.93 146.29C244.22 146.29 243.22 141.27 243.2 134.07C243.2 124.08 248.7 108.08 248.66 98.3601C248.66 91.6301 245.57 91.2301 242.91 91.2401C242.33 91.2401 239.14 91.3301 238.55 91.3301C231.72 91.3301 233.97 85.4801 227.82 85.5401C209.02 85.6101 185.07 106.13 184.03 137.11C177.68 141.31 168.8 146.61 164.26 146.63C159.5 146.63 158.32 142.23 158.31 138.43C158.31 131.75 169.11 92.0601 169.11 92.0601C169.11 92.0601 182.87 88.5301 188.88 87.3701C193.42 86.4801 194.73 86.1501 196.5 83.9601C198.27 81.7701 201.72 77.2301 204.51 73.1601C207.3 69.0801 204.56 65.9301 199.4 65.9501C192.63 65.9501 174.52 70.2401 174.52 70.2401C174.52 70.2401 183.22 32.7401 183.21 31.9801C183.2 31.2201 182.23 30.8201 180.76 30.8301C177.46 30.8301 171.58 32.6001 167.82 33.9501C162.06 36.0101 157.37 43.0701 156.42 46.3501C155.47 49.6301 148.96 75.3701 148.96 75.3701C148.96 75.3701 114.08 87.4101 109.31 89.2201C109.02 89.3201 108.82 89.5901 108.82 89.9001C108.82 90.2101 112.81 105.5 120.99 105.44C126.84 105.44 144.03 98.4001 144.03 98.4001C144.03 98.4001 135.2 133.5 135.25 145.21C135.25 152.72 138.79 161.51 153.46 161.47C167.11 161.47 179.06 154.42 185.75 149.51C189.41 158.76 198.05 161.3 203.95 161.28C217.17 161.28 227.35 150.73 228.66 149.32C230.38 153.38 234.42 161.17 243.67 161.14C248.9 161.14 254.31 155.29 258.3 149.61C258.22 150.79 258.24 151.97 258.35 153.15C259.95 167.7 281.55 159.15 282.73 157.12C283.46 146.6 283 125.09 287.21 111.81C292.79 157.11 313.95 187.59 351.99 187.45C373.26 187.37 384.17 181.26 388.68 176.22C392.37 172.14 393.62 166.41 391.97 161.16L391.96 161.17ZM209.45 146.23C191.19 146.3 215.04 98.9601 230.62 98.9001C230.64 105 230.3 146.16 209.45 146.23Z" fill="white"/>
<path d="M357.73 160.74C374.22 160.68 386.98 149.83 389.32 146.3C392.34 141.71 385.81 134.77 383.73 134.89C378.52 139.87 373.08 145.9 360.86 145.94C346.48 146 349.73 130.17 349.73 130.17C349.73 130.17 377.41 133.75 388.54 113.85C392.1 107.48 392.25 98.6803 390.81 94.8803C389.37 91.0803 381.32 84.0703 368.51 85.1303C352.77 86.4603 332.94 102.87 328.58 122.58C325.08 138.44 331.7 160.84 357.72 160.75L357.73 160.74ZM375.28 94.3303C377.87 94.2403 377.64 98.5103 376.95 102.98C375.97 109.04 367.66 124.43 351.78 123.83C352.88 114.87 364.69 94.6803 375.31 94.3303H375.28Z" fill="white"/>
</svg>
