<svg width="384" height="499" viewBox="0 0 384 499" fill="none" xmlns="http://www.w3.org/2000/svg">
<g clip-path="url(#clip0_188_2)">
<mask id="mask0_188_2" style="mask-type:luminance" maskUnits="userSpaceOnUse" x="-1002" y="-808" width="1463" height="1461">
<path d="M-1001.21 -807.633H460.191V652.716H-1001.21V-807.633Z" fill="white"/>
</mask>
<g mask="url(#mask0_188_2)">
<path d="M371.568 215.516C366.166 206.602 358.546 199.37 349.407 193.762C354.703 169.845 356.176 145.229 352.347 120.593C340.215 42.5988 261.626 -20.9994 182.83 6.53107C150.822 17.7144 129.699 47.9875 121.004 79.642C118.294 89.5139 116.406 99.6166 114.945 109.807C110.59 106.121 107.167 100.805 104.923 95.5072C100.819 85.8339 98.5479 74.9368 91.311 67.3137C83.8199 59.422 71.5791 56.6035 61.2382 60.0032C50.8973 63.4029 42.8304 72.6703 40.4395 83.2841C38.6479 91.2401 39.8433 99.5845 41.9097 107.476C46.8288 126.274 56.8365 143.883 71.2752 156.9C81.771 166.366 94.6489 173.282 108.363 176.58C106.442 199.545 103.856 222.739 94.1462 243.715C86.6579 259.893 72.8184 271.783 58.6837 282.651C41.9155 295.546 17.0658 315.316 8.50784 334.654C5.39797 341.69 2.9662 350.528 7.76253 356.545C15.6833 366.475 32.2206 357.675 44.1778 361.971C21.7949 378.511 5.29276 403.214 0.49935 430.616C-1.33617 441.116 1.63048 451.342 13.7221 455.971C31.1275 462.636 49.4915 445.851 58.9088 435.862C62.7581 431.785 67.7035 426.627 72.9295 428.665C77.1676 430.316 78.3367 436.052 76.8957 440.363C75.4489 444.68 72.2193 448.117 69.8138 451.978C61.8491 464.754 64.0529 482.944 74.8352 493.449C77.7404 496.282 81.3647 498.645 85.4128 498.961C95.5696 499.746 101.757 488.51 106.656 479.582C122.752 450.261 151.392 430.152 180.118 412.993C212.783 393.483 246.55 374.489 271.847 345.431C292.666 321.52 308.549 293.703 322.511 265.255C326.004 272.519 328.748 280.06 332.951 287.061C336.5 292.97 343.506 298.613 351.353 300.307C372.281 304.819 381.151 285.049 383.189 271.763C385.971 253.619 381.476 231.866 371.568 215.516Z" fill="#9AFA67"/>
</g>
<mask id="mask1_188_2" style="mask-type:luminance" maskUnits="userSpaceOnUse" x="-1002" y="-808" width="1463" height="1461">
<path d="M-1001.21 -807.632H460.191V652.717H-1001.21V-807.632Z" fill="white"/>
</mask>
<g mask="url(#mask1_188_2)">
<path d="M217.335 128.754C214.272 155.268 204.434 163.212 198.761 163.212C190.767 163.212 185.658 154.85 186.684 129.361C183.147 137.168 181.507 145.924 182.609 154.54C183.197 158.802 184.614 163.177 187.683 166.495C190.705 169.903 195.475 171.302 199.807 171.162C204.206 171.191 208.795 169.439 211.761 166.063C214.778 162.75 216.359 158.515 217.3 154.33C219.109 145.851 218.65 137.165 217.335 128.754Z" fill="#074739"/>
</g>
<mask id="mask2_188_2" style="mask-type:luminance" maskUnits="userSpaceOnUse" x="-1002" y="-808" width="1463" height="1461">
<path d="M-1001.21 -807.633H460.191V652.716H-1001.21V-807.633Z" fill="white"/>
</mask>
<g mask="url(#mask2_188_2)">
<path d="M160.317 113.919C161.261 89.9573 168.513 77.6553 174.087 77.5034C180.967 77.3165 187.827 91.0584 188.446 117.794L160.317 113.919Z" fill="#074739"/>
</g>
<mask id="mask3_188_2" style="mask-type:luminance" maskUnits="userSpaceOnUse" x="-1002" y="-808" width="1463" height="1461">
<path d="M-1001.21 -807.633H460.191V652.716H-1001.21V-807.633Z" fill="white"/>
</mask>
<g mask="url(#mask3_188_2)">
<path d="M219.233 117.501C219.37 107.025 221.051 79.8887 231.827 77.9056C241.961 76.0422 248.011 98.2511 249.314 113.293L219.233 117.501Z" fill="#074739"/>
</g>
<mask id="mask4_188_2" style="mask-type:luminance" maskUnits="userSpaceOnUse" x="-1002" y="-808" width="1463" height="1461">
<path d="M-1001.21 -807.632H460.191V652.717H-1001.21V-807.632Z" fill="white"/>
</mask>
<g mask="url(#mask4_188_2)">
<path d="M291.15 237.915C295.008 236.708 299.162 237.05 302.97 238.288C306.805 239.509 310.312 241.662 313.22 244.361C316.164 247.039 318.458 250.322 320.127 253.841C320.533 254.729 320.936 255.611 321.24 256.537L321.968 259.335C322.345 261.242 322.725 263.12 322.749 265.124L322.752 265.223C322.752 265.355 322.643 265.463 322.512 265.466C322.421 265.466 322.345 265.416 322.301 265.343L319.639 260.658C318.794 259.075 317.914 257.51 316.868 256.061C314.822 253.134 312.501 250.389 309.847 248.006C307.243 245.584 304.364 243.426 301.181 241.817C298.007 240.204 294.605 239.033 291.08 238.408C290.948 238.385 290.861 238.262 290.884 238.131C290.902 238.043 290.969 237.976 291.048 237.95L291.15 237.915Z" fill="#6FBF44"/>
</g>
<mask id="mask5_188_2" style="mask-type:luminance" maskUnits="userSpaceOnUse" x="-1002" y="-808" width="1463" height="1461">
<path d="M-1001.21 -807.633H460.191V652.716H-1001.21V-807.633Z" fill="white"/>
</mask>
<g mask="url(#mask5_188_2)">
<path d="M349.309 193.961C344.659 191.362 339.883 188.999 334.883 187.182C329.943 185.202 324.805 183.777 319.643 182.457C319.52 182.425 319.444 182.299 319.476 182.176C319.494 182.103 319.547 182.048 319.614 182.022L319.745 181.972C322.729 180.809 325.632 180.587 328.455 180.769C331.282 180.955 334.05 181.525 336.657 182.547C339.273 183.54 341.731 184.957 343.961 186.73C346.185 188.505 348.196 190.646 349.57 193.538L349.628 193.661C349.684 193.777 349.634 193.912 349.52 193.967C349.453 194.002 349.371 193.996 349.309 193.961Z" fill="#6FBF44"/>
</g>
<mask id="mask6_188_2" style="mask-type:luminance" maskUnits="userSpaceOnUse" x="-1002" y="-808" width="1463" height="1461">
<path d="M-1001.21 -807.633H460.191V652.716H-1001.21V-807.633Z" fill="white"/>
</mask>
<g mask="url(#mask6_188_2)">
<path d="M208.821 395.732C199.321 401.632 189.676 407.298 180.119 412.993C151.387 430.167 122.744 450.261 106.668 479.585C101.758 488.523 95.5617 499.735 85.4195 498.949C81.3568 498.657 77.7325 496.292 74.8389 493.459C64.0538 482.941 61.8617 464.748 69.8117 451.985C72.2084 448.126 75.4527 444.683 76.8849 440.36C78.3463 436.038 77.1772 430.313 72.9391 428.677C67.7073 426.633 62.7677 431.773 58.9096 435.862C49.4982 445.851 31.1429 462.645 13.723 455.986C9.74797 454.464 6.76671 452.335 4.63306 449.794C11.5893 453.211 20.6793 452.948 27.694 447.458C32.8089 443.427 49.4105 422.687 69.9579 409.605C83.9873 400.665 95.1817 398.069 98.7475 399.818C105.207 402.972 104.418 409.664 101.816 415.301C97.14 425.465 90.1837 434.081 86.8809 444.946C85.9748 447.866 84.6888 452.043 86.0625 455.051C89.6576 462.996 101.963 454.876 106.025 451.777C134.99 429.466 165.914 411.241 200.432 398.828C203.15 397.835 205.956 396.78 208.821 395.732Z" fill="#6FBF44"/>
</g>
<mask id="mask7_188_2" style="mask-type:luminance" maskUnits="userSpaceOnUse" x="-1002" y="-808" width="1463" height="1461">
<path d="M-1001.21 -807.632H460.191V652.717H-1001.21V-807.632Z" fill="white"/>
</mask>
<g mask="url(#mask7_188_2)">
<path d="M44.1783 361.968C32.224 357.674 15.6809 366.465 7.76013 356.538C4.54504 352.507 4.57427 347.189 5.91876 341.99C5.91876 344.505 8.40315 348.591 24.0109 349.616C46.955 351.103 44.1783 361.968 44.1783 361.968Z" fill="#6FBF44"/>
</g>
</g>
<defs>
<clipPath id="clip0_188_2">
<rect width="384" height="499" fill="white"/>
</clipPath>
</defs>
</svg>
