<svg width="348" height="503" viewBox="0 0 348 503" fill="none" xmlns="http://www.w3.org/2000/svg">
<g clip-path="url(#clip0_188_37)">
<mask id="mask0_188_37" style="mask-type:luminance" maskUnits="userSpaceOnUse" x="-975" y="-151" width="1421" height="1421">
<path d="M-974.954 -150.939H445.725V1269.96H-974.954V-150.939Z" fill="white"/>
</mask>
<g mask="url(#mask0_188_37)">
<path d="M323.501 312.194C282.123 273.267 306.578 183.085 308.789 167.359C311.051 151.26 313.915 135.13 313.537 118.878C312.502 74.4178 285.083 31.5691 245.154 12.0118C221.147 0.252478 193.026 -2.74847 166.894 2.4634C113.826 13.0491 72.4077 61.462 54.0923 113.515C45.5682 103.435 41.4255 89.4424 35.5297 77.2113C32.4753 70.874 28.0058 64.2441 21.0985 62.9C12.205 61.1722 3.86277 66.941 1.2203 77.8848C-3.10993 95.8251 2.51313 142.934 43.9799 168.456C44.2385 207.087 63.5 242.235 88.1772 272.051C140.08 334.764 270.342 388.121 278.267 411.475C284.063 428.557 261.554 482.989 259.017 491.083C256.218 499.989 260.514 507.218 273.763 500.145C299.071 486.635 334.267 430.007 341.72 407.025C353.043 372.099 350.241 337.35 323.501 312.194Z" fill="#9AFA67"/>
</g>
<mask id="mask1_188_37" style="mask-type:luminance" maskUnits="userSpaceOnUse" x="-975" y="-151" width="1421" height="1421">
<path d="M-974.954 -150.939H445.725V1269.96H-974.954V-150.939Z" fill="white"/>
</mask>
<g mask="url(#mask1_188_37)">
<path d="M269.174 462.611C275.468 443.895 281.631 421.382 278.255 411.49C273.942 398.739 233.078 377.008 188.449 349.726C188.383 349.661 188.318 349.63 188.255 349.564C262.105 369.545 290.581 369.644 299.077 393.777C303.424 406.105 283.347 440.357 269.174 462.611Z" fill="#6FBF44"/>
</g>
<mask id="mask2_188_37" style="mask-type:luminance" maskUnits="userSpaceOnUse" x="-975" y="-151" width="1421" height="1421">
<path d="M-974.954 -150.939H445.725V1269.96H-974.954V-150.939Z" fill="white"/>
</mask>
<g mask="url(#mask2_188_37)">
<path d="M114.695 117.756C113.101 122.433 112.771 127.739 114.871 132.212C118.133 139.16 125.665 140.49 131.823 136.48C138.809 131.933 142.515 123.598 143.592 115.582C144.666 107.574 140.475 98.0052 130.919 99.5199C122.082 100.924 117.3 110.106 114.695 117.756Z" fill="#074739"/>
</g>
<mask id="mask3_188_37" style="mask-type:luminance" maskUnits="userSpaceOnUse" x="-975" y="-151" width="1421" height="1421">
<path d="M-974.954 -150.939H445.725V1269.96H-974.954V-150.939Z" fill="white"/>
</mask>
<g mask="url(#mask3_188_37)">
<path d="M120.542 48.0925C123.582 44.148 127.895 41.5222 130.844 42.8209C135.621 44.9153 132.203 52.7502 130.958 55.1316C125.559 65.436 119.354 75.3169 112.421 84.6579C109.977 87.9487 106.568 91.4299 102.201 89.2019C99.0496 87.5963 98.8223 85.0018 99.9162 81.9895C102.931 73.6772 116.342 53.5345 120.542 48.0925Z" fill="#074739"/>
</g>
<mask id="mask4_188_37" style="mask-type:luminance" maskUnits="userSpaceOnUse" x="-975" y="-151" width="1421" height="1421">
<path d="M-974.954 -150.939H445.725V1269.96H-974.954V-150.939Z" fill="white"/>
</mask>
<g mask="url(#mask4_188_37)">
<path d="M180.784 48.0926C183.825 44.1481 188.618 41.6474 191.522 43.0455C196.65 45.5122 193.403 54.0802 192.155 56.4617C186.757 66.766 180.73 76.7834 173.621 85.988C170.982 89.4067 166.518 92.6293 162.014 89.9068C159.258 88.2415 159.065 85.0019 160.159 81.9896C163.174 73.6773 176.585 53.5346 180.784 48.0926Z" fill="#074739"/>
</g>
<mask id="mask5_188_37" style="mask-type:luminance" maskUnits="userSpaceOnUse" x="-975" y="-151" width="1421" height="1421">
<path d="M-974.954 -150.939H445.725V1269.96H-974.954V-150.939Z" fill="white"/>
</mask>
<g mask="url(#mask5_188_37)">
<path d="M232.37 175.886C241.173 170.99 249.665 165.823 256.783 159.012C263.963 152.351 270.078 144.68 274.74 136.218C279.329 127.735 282.946 118.715 284.895 109.297C285.864 104.605 286.717 99.8653 286.936 95.1138C287.308 90.3793 287.106 85.5966 286.384 81.1861C285.796 76.7671 284.117 72.9648 281.418 70.2992C278.75 67.6052 275.115 66.5764 271.439 67.1391C268.129 67.591 264.96 70.3532 262.454 74.0759C261.173 75.9288 260.105 77.9465 258.999 80.1403C257.866 82.2944 256.803 84.5338 255.729 86.7816C251.441 95.7447 247.39 105.418 240.576 113.546C237.081 117.496 232.87 120.889 228.196 123.214C223.539 125.564 218.607 126.857 213.725 128.082L213.708 128.087C213.572 128.121 213.432 128.039 213.398 127.902C213.367 127.775 213.438 127.647 213.56 127.601C218.285 125.933 223.039 124.262 227.361 121.761C231.674 119.255 235.405 115.833 238.468 111.9C244.579 103.949 248.185 94.4517 252.106 85.2385C254.118 80.6405 255.99 75.9402 258.738 71.6547C261.432 67.4602 265.327 63.4249 270.555 62.4501C275.624 61.4413 281.162 63.0668 284.83 66.727C288.572 70.3134 290.655 75.3178 291.379 80.3222C292.166 85.3352 292.297 90.4248 291.868 95.452C291.57 100.496 290.678 105.481 289.552 110.394C287.225 120.204 283.378 129.662 278.124 138.264C272.876 146.874 266.196 154.573 258.496 161.078C250.697 167.503 241.792 172.362 232.56 176.358C232.433 176.412 232.285 176.352 232.228 176.224C232.18 176.105 232.225 175.966 232.336 175.903L232.37 175.886Z" fill="#6FBF44"/>
</g>
</g>
<defs>
<clipPath id="clip0_188_37">
<rect width="348" height="503" fill="white"/>
</clipPath>
</defs>
</svg>
